/* XPM */
static char *f94b240e653d4a0e9541107c8e251e95aa40t5YSxcsfS4Yp[] = {
/* columns rows colors chars-per-pixel */
"128 128 34 1 ",
"  c #17150C",
". c #19170E",
"X c #1C190F",
"o c #1E1B11",
"O c #1A1C10",
"+ c #1C1E12",
"@ c #241912",
"# c #271B13",
"$ c #201D13",
"% c #211D13",
"& c #231F14",
"* c #2A1D15",
"= c #1E2014",
"- c #1F2115",
"; c #212316",
": c #242015",
"> c #242115",
", c #262216",
"< c #272317",
"1 c #212417",
"2 c #222417",
"3 c #2E2017",
"4 c #242719",
"5 c #2B2619",
"6 c #26281A",
"7 c #282A1B",
"8 c #2E291C",
"9 c #292C1C",
"0 c #2B2E1E",
"q c #2C2F1F",
"w c #322C1F",
"e c #303322",
"r c #343825",
"t c #393C29",
/* pixels */
"e558858rrtrtttreeeqrrtt7rrttttttttreeeeerrrrttttretrrrrreeqeeeeeereeeeqeeeeeerw8885rtrrreeereqqeeeeee55888rrreeeer8w8$444qe8rtqq",
"qe5855rrtreettererqqeerrrrrrerrtreeqqqeqrrreertttterrrtrrrreeeeeereeeeeeeeeeeettrretttrreeeeeqeerrre555555eeeeeee88&&$5eqe<88rre",
"qqqe55erreeetrtreeqqreqqrrtrrrrreeeq5eeqrrreertt0trrrrrrrrrrreeeeeqqqeeeeereeerttr407trrreeeteererrr55555eeeeerree&&$$44e5888ree",
"eeeeeeeee4rrrtttreqrreqqeeqrtreqerr55eerrrrrrr000rtettrrrrtrreeqqeqqqeeeeerqeerrr7407rttttqereererrrrereeereeeereeee447ee588r760",
"qeeeeeeeq2477ttrtteqeeqrreerrreqr8855errertrr70004rrrrrrrttteeeeqqqqqqqeeeqeeer770770erttteqeerrrrrrrreere444eeeeeeee47eer8r--;0",
"erre5555547000trrtteeeettrerttrrr55858rrrtttr77774rrrrrrtttrrtreqqqqqqeeeeererr77777rrrerreeeerrrrreeeeee4444eeeeeeeeereee7----;",
"eer8855554440ttrrereeeerttrrrrrtr55wwwteettttrrrreeeerrttrttetrrqqeeeeereeeerererer7rrrerreeererrrerree444447eee8eeeeeerer07;;;0",
"eeer8858eee70trtteeeeeeetrrrrreee85erreeeetttrrrrreeerrrttrrrr85<<eeeerreeerrrteeeeerreereqreerreeerere$$444eeee5reeeeererrrtt00",
"44erree8rttrttrtttreeeeeeeerrrerrreereeeeerrrr88rreeeer8wtter85<<<eeeerreeerrttereerrrrqqeqeqerreeerree5555558855rreeeeeerrerttt",
"44ereeerrrrrttrrrrtteeeeeerrrqqeeerrtttterrr888rrtree448wwwtw88<<<qeeerrrrrrrrtrreeeerrreeeqqerrrrreer55w888888888eeeerrrreeertt",
"4eeererrrrrrrrerrttteeeeeeeqeqqeeerrrrrrrr88888wrtt744888wwww5w<<qqeerrrrrrrrrttreeeeeeeeqqqqqqtttrrrttw8wwrr88888reeeeeeerrrtrt",
"5eeereerrrrrrrrttttrrreqqqqeqqqereerrrrrtrr8ww88r774224588wtttt&o22qerrrrrrrrttrreeeeqeeeeeeqqrrtttrrrerrwwrr&8844reeeeeeeeqqrrr",
"85eerttttrrrrrrtttrrreeqqeeqqqq7774errrtttttttrtre24422er88tt007422qrrrrrrrrttrrrerreeeeeeee0rrrttrrrrtrrerr8&&7077rreeeeqqeqqrr",
"wtrrrtttttrrrrrreeeqqeeq222222477744rrrrttttttttreeeeeeerrrrr00444eeerrrrrrrtttrreertereeeeeeeertrrrrtttre888&&77777eeeqqq0eeeer",
"wttrrrttttrrrerrreqqqqq222444447777errrrrttttrttre4eeeerrrrttttre2oo$8rreerrtttttrrrteeeeeeeeeqerrrrrrrrrr8w8&&&77774eeeqqqqeere",
"rrrrrrtttttrrrerreqqqqqq2444444er44er88trrrrreeeq44444eerrrtttt&$oo$$<rrereettttttrtteeeeereeeeqeerrtterrrr8888&077774eeeeeeqqer",
"rrrrrrttttttrrrrreqqqqqeqqeeeeeeeeee8<<8rrrrreee227444qrerrrrtt$$o$$558eeeeetttttttteeeeeeeerrqeeqrettttree888rrrrr774eeeeerrett",
"rrrrreererrrrrreee0eqeeeeqeeeqeeeer5$<<<wrrrre44O2474eereeeeerr5#####55eeeeettrttttteeeerrreetrreerrttter477rrrrrrtt4eeeere444rt",
"eerrreeeeeeerrrree000eeqqeeeerreeer6o$&<0trtr4444rr74eeeereerre885855reeeeerttttttttteeerreerttteeertrr44477rrrrrrtrrreerr742247",
"eerrreeeereertrreq00q09qqeeeeerreeee4$<0ttr447770rr74errrrrrrrtrww8<eere5rrrttttttttteeerrrerrrrrrrrrr777444rerrrrtrrrrrteeqoo4r",
"rreerrerrrerttreerqq0000qeeeqqrrreere47rrtr77707tt77777rrrrrrtttttr5eeww8tttttttttttteeeetrrrrrerrrtrr77744eeeerrttrrrrrrree5588",
"reeeeerrrrerrrteqe9qq<<<<9eq0qerreeeeeerrrteqtttt074777rrrrterrrrtrr88wwwwttttttttttteeqerrrrrrrrrttrtttrr4eeetrrttreerrrrre5888",
"rrreerrrrrereerqer99<8<$$X200qeereqeeertrreeqeerr77777rrrrrrreerrrtrt88wwwtttttttttteeeeeeewrrrrrettttttttreeeereeereereeeee888w",
"rerrertrqqqeeeeeeeq9qo$$$2-q0eeeeeeqrrrtreeqerrrrrr777rrrrrrreerrtttqerttrrtrttrttttrerree58rrrrreetttttrrtrreeeeeeeeqre44eqrtew",
"rrreqqreqqqqeereeeeee42&o20qqqeerreqqerrrreeqrrtrrrrrrrrrrrrrreerrrrrrrrtrrttrrrrrttrrer8558rreererrrtttrrrrrreeeeeqeee7774qerrr",
"rrtqqeqe<qqqer8885eeeqqqqqq00qqerrrreeeeereeqeertrrrrrrrrerrrrerrrtrrrtrrttttrrrrrrtrrer85558ee4errrrrrreeerrrrrreerree7744qeerr",
"trreeqq<<<<q555555qeqqqqqqqq0qqerrrreeererrq0qerrreeerrrrrrrrrrrerrtererterttrtrrrrrtere55555e47retttteeeeerrrrrerrrrre44742errr",
"wreeee5<<<<<55585eqqqqeqqqq2qqqeeerrrerrerrre4qrree5eerr88888rtreeereeqrtrrttrrrrrrtteer55ee7477rerrtreeeerrrrrrrrreeeee77e0277r",
"weereeq<<<<qeeeeeqqeerrr4444rreeee5rrrerrrrr4444e8555er888888etrreqereerrrrtttrrrrrteeeeeere77244rrrrrrreeeeeeerrrreeeeereq-2777",
"8558eqqqq<<qeqqeqqqereer64777rr5555erreeeee46644$55555555888erreeqqrrerereetttrrttreeeeeeeee77770ttttrreeeeeeee2erreeeeereqee444",
"555<q<<<<qqqeqqqqeqerqqr07777rr58585eeeeqeee4472q<555re585<qeeq0qeqerreerrrttttrreereqeeeeee77rrrr7rtttteq77rr42277eeeerrrrtrqer",
"55<q<<<<<<eereqqeeeeeeee68rrrer55588qqeeeeeeee74qq<<eeere5<qee000000eeqqettttttrreeeq0qeeeeerrer777rrttte447e742274eererrttrrtrr",
"eqqqq<<<5eeeeeerreeeqeqqr88858r5eeerqqereeeerereeqqqqeereeeeee0q6009eq0qqrtttttreeeq00qeerqrrre7777rreee4444742442qereerttttttte",
"qqqeeee58eerreqrrreqqq24$8855wrrrrrrreeeeeeeeerrqqq0qqeerrrrre06600eee9qqetttttrreeq00qtrreerr4427776eee4447rtre22qqeertrttttttt",
"eeeeeeeeeerrrreeerreq24778<58rrrrrrrreeeeeeeeertqre0qqqrrrrrre00q2476rqeeettttttreqe9qeq6qeerre4447774$4474707rrqqqqqrttttttttrr",
"eerreeeeeerrrrqeere442444qertrrereerreeeeeeerrreqqqeqeerrrrqeqq422474eeeeeettttrrreeeeeqqqqqqeeeee777&&7777700trerreerttttttrerr",
"rrrtttrererrreqqe7772222qqreettrreeeeeeeeerrrrreqqeeeeerr7r2qqe44444reereertttttrrqeeee9qq9eeeeqqe77&<&877777ttrrreerrtttttttrrr",
"rrrtttrreerrreq474444e447treetrrreeeeeeeerrrrrreqqqq9qqrr7766eeeeeererereertttttreqreeeq0qqeerrqqqrrw<<8rrrrrtttreerrrttttttrqrr",
"rrrtttrrteerrer74444qe4040treertrrrtreeerrrrrrqeq990qqqr444074eeeeereeerrrettttrtqeeeeeeeqqqerreqrerwww88eqrttttreertt0ttttttrer",
"ttrtrrtrreeertrreeeee227770rrrtwttttttrrrrrrrqqqqeq0rrerq4400reeeeerreerreettttq00eeeeeeeq0qerreertrrr5rrerrtttterertt00700trerr",
"trrtrrerreerrreerreerq2447rrrttwww0ttttrrrrrreeeeqq0ereree707reeeeerrrrrrrrtrttqq9eeereeeqqqerreqetertqertrrtttrrreet000000trqtr",
"rrrrtretrreerreereeetrr440errtr&&&&wttterrrrteeeereqqeerrrrrrrrerrtttrrrttrrttteqerrrrerreeerrrreertweerqeetttrtrerett0000ttrrrt",
"rrrrrrrrrrrereeeereeeerrrrrrrr5&&$$&trrrrtrrrrrrreeqeqettrrtrrrtttttrrrqrttrrttrrerrrreereerreeteeee<55rerrtttttttrrtttttrrtrqer",
"rtrrrrrrtreeeererreererrrrrrree&$$$4tteeeeerrrrrrreeeettttrttretrrttrttqettrrtttrrrrrrreerrrerreeeqe$&$85rerttttttrrrttttrtreeqt",
"tteeertttreeerrrrrerrrrrrrttrree558errreeqeerrrrrtreertrrtrtttrttrttttrerttrrtttrrrrrrrrqeetrerteer24$&8rrrrttttrrertrtttrtteeqr",
"ttrqqeerrreeeeeerrtte7rrrrrrqeqrerrertttreeqqeqrrerrrtrrrrttttrttrttttertrttrtttrrrrr88eeeetterer774+ $88rrrttttr7ettrrrrettr8er",
"rrreqeeeeeeeertee8trr0774errreqte5errttttrrqqqqreeeqqrer8rrtrtttrttrrrrrtrttttttrrrr885reeeererqe--+.o8wwwrrtttt000ttrrrerrttww8",
"rrreeeeeeeerrrrrr8wr700777rrreerr58wtrtterreqqqeqeeqqqe88588rtreettrr8rrttttrrrtrret8855rerrreee77774&8wwtttt0tt70000tttrrtt8ww8",
"55reeqereeeerrtr588880077rteererr83ww8ttreeeqqqerreeqq588555ererrww888rtttttrrrrrrrtr588wrrreeerr4742rr8r7r0000770700ttrttttrrww",
"88eeeqrrrerqeeeqe5858rt77rtrerer83*ww8ttreqreqqeqrreqq55588rertrr<8888wtrrrtrrrrerttr58trreqqeeeereeeeerr477707-70770ttrtttrreet",
"855qerrrrreqeeee5588rttttertrrrww33w8rtrtrtttereetttreeee88rrrtr70&&&8ttrrrrrrrqerqrerrrrrqqqqrrqqq44eerr77777447040ttrrrrreee47",
"88eqeerrrrteereqe58tttttterrrtt8883*8ett00tttrrrrttrrrereerrrrt770077rtttreerreqqqqrr8888eqqqttrre2444qrrr7774eertrerretrrree447",
"trrrtttttttreeeeettttttt88rreee8$&88rrt070ttttrrrttt7rereetrrrr77007terttre47req2qert8888<qqqttttt2244errrr74qqerwwrreeteeet7747",
"rrrrttttttrrreeeeerrtttw8wrre77$$ttttt06700ttterrttr77ertteett770000rrrre44774e44470t88884rertrttt42042rrrrrreerr88885rteeer7444",
"rrrrrtttterrrrrrrrerrr88888re77447ttrt0<470trtreree4444eeetettt0000rtt44r44774444400trr8r77760rrrrt27rrrrrrrrertw88888rreereee40",
"rrrrrttrrrtteereerreee5555rre47077ttrr<<88wretteee444444eerrrtttt00tt07477777744400ttrrr7477660677tqqrrrrrrrrrete5588rreeeereeee",
"rtrttttrtttrreeeeeeeee55eerrrrtrtrtttww858wrrteeere4422eeeererrrrtrt007477r77eeee00ttrrrt477022477reerrrrrrrrrreeee55eeeeeeeeeer",
"ertrrttrrttrereeeeeeereeertertrrrrrrrw3*58rrreeeerree7eeerereerrrtt077444rrreeeerrtttrrrrr7002227rrrrrrrtrreeeeeetreeeeeeeeeeeer",
"ertttttrrrtrerreeeeeeeeertteerrrrrrr8w88#*rrrrreerreerrertreeeertt0074444rrree4errrrtrrrt00002X<rrrqerrrrrreeerrrrrreeeeeeerrrrr",
"tttttreeeerreeeeeeeeeeeettreeerrrrrttr8**8rrrrreerrerrrrrttreert700074rrrrrre4477rrrrrrrt0000o<<5rrqqeeeeeeeerrrttteereeeeeerr88",
"ttreeeeeeeeeeeeeeeeeeeeerrretettrrttrr88*8rrrtteereerrrrtttrrrrt70077errrrrt444707rrrrrttrrtw5<<<5reeeqeeeeeerrrrtrreeeereeett88",
"rreeeeeeerreeeeeeeeeeeerrrtteeeretttrr888w8rrttrrreerrrtttt8errrrttr4eerrrttt7770trrrrtttrrrt55<5eeeqqqeeeeeerrrtrerreeerreerrr8",
"reeeeeeeeerreeee4e44eerrrrreeeertrtttr8888w7e88trrerrrrttww85errtttrrerrrrtttrr77ttrrrttttrrrr55eeeeqqqeeeeerrrreerrrreerrrerrrr",
"reeeereeeerreeee4444eerrreeeeeerrrttttrrrr00$&8wrrrrtrttwwwww8eetttrreee58wwwtrrrttrrrtttrrrrreeeeeeqqqeeeerrrreerrrertrrrreerrr",
"eeerrrrreeeeee4444447rrtrreeeeerrrrtttrret0<&&&88rrrrrtttwww8reerrrtree8wwwwwttrrrttrrtttrrerreerereqqqeeeerreeeeettrettr7770ttr",
"reerrrrreeeerrt44444rrrrrrreeerrttttttrrrr0&$$8wtrrrrrtttr8weeeeerrrrtr8wwwwtttrrtttrrrtteeerreeeeeeeeeeeeeereeeeeetrrr744477ttt",
"rrerrrrree55rrreee44rtrrrreeeerrtttrr7rerrt885wttrrrtttttrrtreeeerrrrrtrtttttttrrrrtrrrttrrrreq0eeerereeeeeeeeeeeerrree44444rret",
"88eeere5555errrrereeertrrreeerrrrt0777rerrw8858wtrrrrrwtwrrttttrerrrrtttttttttttrtrtrrrrrrrreeqeqqrrrreeeeeeeeeererrreeeeeeeerrr",
"88eeet55855wr77744ee55rrrreerr7ttt00044rrrt85<8rttttrr8ww5rrtttrerrttttttttttttt07ttrrrrqqrreqqq24777reeeeeeeeerrrrteereeeeeeere",
"855erre8885r777774e55eeerrre477trr00074r8rrre55rrttttwwwwwwrttrrrrtttttttttt07777rrtrrrreqrqqqq222247qeeeeeeeeeeeerrerreeeertree",
"85eeerrrrttr77777r5555eettr74477rr7rtr8wwrrreerretttttwwwwrrrrrrrrtttttttttt7777&7ttrrrrrrreeee22244eeeeeeeeeeeeerreerrreeeeettt",
"reereeeerrrrr8w77e55555rttt77400trrer885w8ereereertttttww8rreerrertttttttttrr70$$ww8rrrrrreeeeqqqeeeeeeeeeeeeeeee85errr4444eettt",
"eeeeeeeeerrrr88ete5558rrttrtrt44treee85wwreeeeeerrrrrtteereeeeeeertttttttttrrew58wwwerrttrrrqqqqqeeeeeeeeeeeeerr85540;74444eeett",
"trrrereeeeer8888ree55rrrtttrre4444eerrtttreetrrerrttrtterrreeeeeerrtttttttrrrerwwwweeertttteqqqqqqeqeeeeeeeeerr888&&7--+44ereett",
"ttrrrtrrrre888885eeeerrrrttrre44047eerrttrrrrrrrrttrerrerrrttrreeeertttttttrrttttwwtreqrrttteqqqqeqerrreeeeeeet5588r777reeereeee",
"reeertrrrrrr8885eeeeeerrrtrrre4447rreerrtrerrrrrrttrere55rtttrreeeeetrrtttttrrrttttreereetttteq0qqeerrre5555eee55errrrrreeerrrrr",
"rreetterrrrrr88eeeeeerrrrrrrrtreerrrreeereerrrrrrrrrrt8558ttttreeeeetrrttrrrerrrrrtrrqertttttteqqqerer885555eeeeerrrrrrrrreerrrr",
"reeeeeerrrrrrrreeeeeerrrtee47tteeeerreeeteerrrrrrrtrr88555wttteerrrtrerrw33eereerrrrqqrrtttttteeqqeeee55555rerrerrrerrttrreeeerr",
"reeeeeerrrrrrrreeeeerre47744rtteeeerrrerrerrrrttrtrrrr5555tttrerrrrtrrrrw3*8eeeerrreqqeetttttrqeqeeerreeeeeeeerrrrrttrttreeeeeee",
"eeeeeerrrrrrrreereerrrr747447rreeeerrrtterrtrrrtrtrrrre55rterrttttrrerr333388eeettteqeeeerrttrerreeer4eeeeeeeerrrrrrrrtteeeeeere",
"eeeeeerrrrrrreeerrrrrrrr74447rrrrertrrrtrttttrrrrtrrrrreerrrrrttttrrer883333rrerttttrrerrrrrrtrw<5ee44eeeeeeerrrrrrrrettreteeeee",
"eeeeeeerrrreeeeeerrtrrreeeeerreertrtrttttttttrrerrrttrrerrertrttttrrertww33wrrerttttrrererrrrr555<7774eeeeeeeerrrerrreerreeeeeee",
"rrrereerrreeeeeeerrrtteeeeerrrerrtrtrtttttttrttrrtrrrrrrrrrttrttttrrerrwwtttrreerrttteqqerrr88555877700rreeeeeeeeerrreerrreeeeee",
"rrrtretrreeerrreeerttreeeeerrterrrrr70eettttrttrttrrttttttrrttttttrrerttttttreeeerrrtrqttttr85558e47700rreeretereeeeeeeeeeeeeeee",
"trrrrrrreeeerrreerrrr7eertrrrtrr07477rrrtrttrrtrtttttrerttttttttrtrerrttttttreeereererrrrrrtteeerr77rrrrreeeeerreeeereeeeeeeeeee",
"rrreerrreeeeer4erttrt44470rrrtre474444ertttrrrtrtrttteerttttttttrrertttttttreetrrrrrrrrreertrrreqerrrrrrrtreetreeeererrreeeeeeee",
"rreeerreeeeee74477rr044040rrrreee4744rrrttrrrrrrrttteeertttttttrrrrttttttttrettttrreerrreerreqrreerrrrrrrwtt47704eeeerrtteeerrre",
"eeeeerreeree777747rwr7444trrreeeeerrr888wrrrrrerrtttrrrrtttttt07rrrtrrttttrrettttrteeerrrrtreerreerrrrr8888777440eeeeerteeeerrrr",
"eeereeeeeerr7777&888reeeertreeeeeetwww8wwtrrreetttrrrerrerttt077rrrrrrttttrretttrtrtrrrrrrttrrrrrqeeee8888887744reeeeeeeqqqqeert",
"eeqqqeeeeeetr88&&888rreerrtteeeertwwwwwwwwrrrttttrrrrerreet07000teerrtttttrreeetttwttrrrttttrrrtreqerrr888885terreereeeqqqqqqrrr",
"erreqeeeee5888r8*8888reerrr744ertt5wwwwwwttrrrrrrrrrrrrrrrrr7700rrerrtttttrreeewwwwtree7070rrtrreeeeeeer888wwwrtrrrrrreeqqrrrerr",
"eerrreeee8888888****8rrrt74744ttrrrrtrrtttrrrrrrrrrrrrrrrrrr70777rrrrrtttt7eerrwwwwwr477044ereereeqerrerr88wwttttreeeeererrrreee",
"eeee0qqerr88w8885558ttt00707770eerrttrrtteerrrrrrreerrreqerrr47rrtrrret0007eerrwwwwwtr7077rreeeeqerreeerrr88rttttreeeeqererteeee",
"eqqe0qeerrrrrr555588rrr77700077rtttttttttrrrrrrrrreerrqeqertreetttrrrr00000eeerttttttttttrreqqeqqettrr4447reeereeeeeqqqqeetree55",
"q0qqeeeererrrrr<55888r700007007terttttttttrrrrrrrrrrrtrqqqerrrrrrrrrtrr0007errrtttttttttrerrqeqqerrt072744erreeeereeqqqqrerrer55",
"eeeeqqqeeerrrrtr5558rrr077770774rrttttttttrrrrrrrrrrrttreerrrrrrrrrtttt00077rttttttt0000ttttreetrrrtt0222eereeetreerqqqqqerrert8",
"qeqeqereerrrrrrrr555rreeet<7007errttttttrtrrrrrrrrrrrtrrrrrrrrrrrrttttttttrrrrtttt000000tttrerttrqqttteqqee42200treeqqqqerreerre",
"qq00rereeerttreereeeeeeeee8&$58eretttttrrteerrrrrrrrerrrrrrrrrrrrrtttrtrrtrtrrttrt00000ttrttteerrq0r8wrree447470trreqqqqqqqeeeee",
"qq00erereeertrerreeeqeerrw88wwwtrrrrttrerreeerrtrreeeerrrrerrrrrrrtttrrtttttrrtreerwtrrttrtrrrereqq588rrrre4447tttrreeeeqq0qeeee",
"qq0qrrrrreeerrtrrrreeerrrr8588rrtttrrrrrrrereertrreeeerrreerrrrrttwwttttttttrrtreewww88rrtrrtttre555588rrreeqe7tttteeereqqqqeeeq",
"qq00qrrrreerrrrteeeerrreerrrttrrtrtrrrrrtteeeerrrrreeerrrretrrrrttwwwttttttrerrrr888ww8reterrtrree55888rrrrqeertrteeqqqqqqqqeeeq",
"qq00qreeeeeerrreeeerrrrrrrttttrtrrrrrrrrtrreeeeeereeerrrrrrtrrrrttwwww8eeereqrerr88885888qerrreeerertttttrrrqrttrrrq2qqqqqqqqqeq",
"qqqqqerrtreer88teeeqerrrettrr888rrrrreererrreeeeeeeerrrrrrrtrrr0tttwwweeeeerrrrrrrrr8585eqeeeeeeeetttrtttttrq0reeee44222qeeqeeer",
"qeeqqrrrtttt88wwrrqeerreetrtw888trrrreeeeeerrreeeeeerrrrtttrtt00rrtrrrteeeertrrtttrrrr55qeeeeeeeeerrrrrrrrtrq0eeer447742eeeeeeee",
"ereqqerrtrre8wwwrrreerreetwwww88trerrweereereeeeeerrrtttttttt007rrtrrree444ttrrtttrrtrrereeeeeeerreeerrrreeq00qeree4744eqqeeqqee",
"rreee85rrrrr88888eeerrrrtr8www8rrterr8wwteeeeeeeeerrrrtttttttw$&7rerreee444rterrerrttttrrre744qerreeeerreqqq00qeereee44eeeeeeqee",
"rrree8858rrtt88855eereertrtttrrrrtqer85588reereeeerrrtttertww8&&0tqeeeer747rr8wrerrttttrrr477722ereeeereeqqqq9qerteeeeeqqeererre",
"rrreew88rrrrr888555erqerrettrertttrrrt58&7rrreererrtrrrrrr888888rreeqrrr77&8r88555rrtttrerer777rrreeeeeeeeeeeeeqrrrrqqeeeqqeqeee",
"rrreewwrrrrrrr888wqererrrttteerrrtrrrre&&7rtrerrrrrrrrrrrr88588trrrtrr888&&r88885<eerrreeerrrrrtrrreeeeerereeeeeerre00eqeqqqeeqe",
"trreewwtrrrreertw8rreerrrrtrrrrttrrrrq4477rttrrrrrrrerrrrtrrrr8rrrrerr888888r8888qerrerqqqeerrrerrrrrrrreeeereeeeeee0qeqqqqqeqrr",
"rrqeetttrrrrrrrttrrrttttrrrrrrrteererr4777rrrtrrrrreerrrrrrrrrrr8rrrrrt88888rrr88rreeeeq0qqqrrreeerettrtteeerreeeeeq00qqqqqqerrr",
"rreeererrrrrrtrtrerttttrttttrrtterrrtrr770trrttttrrreerrrrrrrrr888rrrrrrrrtrrttrrreeeeeqqqerrrrrrertertrrtrrrreeeeeeeereeeeeeeee",
"reeeeeerrrrrtterrrttttrrtttrtttreeettrrrrrrrrtrreqeeeqrrtttrr4e55558rqeerrrrrttttrrreereqerrrrrrrrrrrrrettterrterqeeeeerertreeee",
"qeeqeeerrrtrtrqqerrttttrrtttttreeqertrrtrreereeeqereerttrr0774555555qqeerrerttttrrrreerrerrrrrrrrrtrerre4trerttrreqeeeeeetreerrr",
"qeeereee8r885qqeerrttreeerrrrteeeqqertttrtrrerreeeeeeetrre477&55558reqerrrrrtrrttrtttrrrrrrerrrrrrrttttt7772ttrqqrqeeeerrtree8er",
"qeeeeee555555eqrrtrteeeeerqe4ereereerttrrrrtrreeqeeeeerrre77&&85558eqqeerertrrtttttttttttteerrrrrrrrret000777treeeqerertrrert8ww",
"eeerer5555855errtrtreerreee74477rerertrrtttttter0qereerreer70&88wrreeererertrrttttttttrrrteerrrrrrrrerrt7000rteeeqqtrreeeetr8www",
"eeerere55555eerterreqqrree744777rttrterrttrrrttrqqreerrrrrrrtrrrteeeeeeeerrtrttrrtrtttrrreqqrrreerrrreerrr00treeqqereereerrer588",
"eereerrrr888rrrtrreeeetreer7700tttttttttttrerttreerrrrteerrtrrreeeeeeeeqetttrtttttttrrreeeqqeeeerrrrreeerrtttrreeqqeeeeeeerreer8",
"erreerrrrrrrreeeeeeeeetreerrr00tttttttttttrrrrteetrerreeeerrrrrerreeeqeeetttttttteerrrreeeqqeeeeettteeeerrerrreeeeqeeeeeeeeeqqer",
"erreerrrrtttttrrreeeeeerrrrrrrrrtrrtrtrttttrrrreerer8ree4errrrrerqqreeeeerrrrrtrreerrrreeeeeeqrrrrrtrreeqeerrrrreeqeeeeeeeerreee",
"errrrttrttrtttrrrrreeeeerrrtrrrrrrtttrttttrttrreeqe8855542qrrrreeqeeqeeeerree588eetttrreeeeeeetrrrrrerqqqererrree55er5eeeeerreqq",
"rr7rrttrtrrrttttrreeeeeerrrrrrrrrrttrrrttttrrtteee855<$&44eeeereeerqqqeeeeee558rertttrreeeeererttrrtreeqqettreeq55##55eeeeerrqqq",
"777rrtrrttrrrtrrtreeeeeerrrtrrrrrrtrerrrtttreerrrr8w5$&7444eerrreeeeqqeeee88555eerttttttrreertrrtttreqeeqqertrr5<5#*#55eeerttqqq",
"7777rtttrttttttrteeeeeeerrrrrrrrrrrrtrrrttttreerrrree5$$$4eerrrrrrteeerree888555etttttrreererrrrrrrreeqqqqeeeere85#*585eeertreer",
"777rrtttttttttttteerreeeeerrrrrtrerrreeettrreeeeeeeeee$$558rr7rtrrtteerrrer85555ettttrrreqeeeerrrrreeeeeqqeeeeere8#qqerrrtttrerr",
"rrrrrttttttttttt0reerrreeerrrrrrreertreerrrrreeeeeeeeee555r740ttrrrttrrrrrr855eeereeeeeeeqqeeetrrrrqqqeeqqeeeeeeeeeeqqrrttrrrrer",
"rrrrttttttttt0000rreerrertrrrrrrrrrtrrrrrrrrerreeeeeeeee5477700trrrr7rrrrrrtrreeeeeeeeeeqqqqeerrereqqqrreqrreerrerereertrttrrree"
};
